<?xml version="1.0" encoding="UTF-8" standalone="no"?>
<svg
   xmlns:dc="http://purl.org/dc/elements/1.1/"
   xmlns:cc="http://creativecommons.org/ns#"
   xmlns:rdf="http://www.w3.org/1999/02/22-rdf-syntax-ns#"
   xmlns:svg="http://www.w3.org/2000/svg"
   xmlns="http://www.w3.org/2000/svg"
   xmlns:xlink="http://www.w3.org/1999/xlink"
   xmlns:sodipodi="http://sodipodi.sourceforge.net/DTD/sodipodi-0.dtd"
   xmlns:inkscape="http://www.inkscape.org/namespaces/inkscape"
   preserveAspectRatio="xMidYMid"
   width="901.45905"
   height="755.39215"
   viewBox="0 0 901.45904 755.39215"
   version="1.1"
   id="svg18"
   sodipodi:docname="pyrdict_logo.svg"
   inkscape:version="0.92.5 (2060ec1f9f, 2020-04-08)">
  <metadata
     id="metadata22">
    <rdf:RDF>
      <cc:Work
         rdf:about="">
        <dc:format>image/svg+xml</dc:format>
        <dc:type
           rdf:resource="http://purl.org/dc/dcmitype/StillImage" />
      </cc:Work>
    </rdf:RDF>
  </metadata>
  <sodipodi:namedview
     pagecolor="#ffffff"
     bordercolor="#666666"
     borderopacity="1"
     objecttolerance="10"
     gridtolerance="10"
     guidetolerance="10"
     inkscape:pageopacity="0"
     inkscape:pageshadow="2"
     inkscape:window-width="1920"
     inkscape:window-height="1053"
     id="namedview20"
     showgrid="false"
     inkscape:snap-bbox="true"
     inkscape:bbox-paths="true"
     showguides="true"
     inkscape:guide-bbox="true"
     inkscape:object-paths="true"
     inkscape:bbox-nodes="true"
     inkscape:snap-bbox-edge-midpoints="true"
     inkscape:snap-bbox-midpoints="true"
     inkscape:snap-midpoints="true"
     inkscape:snap-smooth-nodes="true"
     inkscape:snap-object-midpoints="true"
     inkscape:snap-center="true"
     inkscape:snap-intersection-paths="true"
     inkscape:zoom="0.35355339"
     inkscape:cx="722.45208"
     inkscape:cy="304.14289"
     inkscape:window-x="0"
     inkscape:window-y="27"
     inkscape:window-maximized="1"
     inkscape:current-layer="svg18"
     inkscape:snap-global="false" />
  <defs
     id="defs12">
    <linearGradient
       id="gradientFill-1"
       x1="0.7414425"
       x2="590.86261"
       y1="3.6658268"
       y2="593.78699"
       gradientUnits="userSpaceOnUse"
       spreadMethod="pad"
       gradientTransform="matrix(1.5275831,0,0,1.0230655,-1.1326129,-3.7503812)">
      <stop
         offset="0"
         stop-color="rgb(203,206,208)"
         stop-opacity="1"
         id="stop2" />
      <stop
         offset="1"
         stop-color="rgb(132,131,139)"
         stop-opacity="1"
         id="stop4" />
    </linearGradient>
    <linearGradient
       id="gradientFill-2"
       x1="301.02603"
       x2="703.0675"
       y1="151.4006"
       y2="553.44208"
       gradientUnits="userSpaceOnUse"
       spreadMethod="pad"
       gradientTransform="matrix(0.9899476,0,0,1.0101545,179.45907,57.39779)">
      <stop
         offset="0"
         stop-color="rgb(39,109,195)"
         stop-opacity="1"
         id="stop7" />
      <stop
         offset="1"
         stop-color="rgb(22,92,170)"
         stop-opacity="1"
         id="stop9" />
    </linearGradient>
    <linearGradient
       id="linearGradient2795">
      <stop
         id="stop2797"
         offset="0"
         style="stop-color:#b8b8b8;stop-opacity:0.49803922;" />
      <stop
         id="stop2799"
         offset="1"
         style="stop-color:#7f7f7f;stop-opacity:0;" />
    </linearGradient>
    <linearGradient
       id="linearGradient2787">
      <stop
         id="stop2789"
         offset="0"
         style="stop-color:#7f7f7f;stop-opacity:0.5;" />
      <stop
         id="stop2791"
         offset="1"
         style="stop-color:#7f7f7f;stop-opacity:0;" />
    </linearGradient>
    <linearGradient
       id="linearGradient3676">
      <stop
         id="stop3678"
         offset="0"
         style="stop-color:#b2b2b2;stop-opacity:0.5;" />
      <stop
         id="stop3680"
         offset="1"
         style="stop-color:#b3b3b3;stop-opacity:0;" />
    </linearGradient>
    <linearGradient
       id="linearGradient3236">
      <stop
         id="stop3244"
         offset="0"
         style="stop-color:#f4f4f4;stop-opacity:1" />
      <stop
         id="stop3240"
         offset="1"
         style="stop-color:white;stop-opacity:1" />
    </linearGradient>
    <linearGradient
       id="linearGradient4671">
      <stop
         id="stop4673"
         offset="0"
         style="stop-color:#ffd43b;stop-opacity:1;" />
      <stop
         id="stop4675"
         offset="1"
         style="stop-color:#ffe873;stop-opacity:1" />
    </linearGradient>
    <linearGradient
       id="linearGradient4689">
      <stop
         id="stop4691"
         offset="0"
         style="stop-color:#5a9fd4;stop-opacity:1;" />
      <stop
         id="stop4693"
         offset="1"
         style="stop-color:#306998;stop-opacity:1;" />
    </linearGradient>
    <linearGradient
       gradientTransform="translate(100.2702,99.61116)"
       gradientUnits="userSpaceOnUse"
       xlink:href="#linearGradient4671"
       id="linearGradient2987"
       y2="144.75717"
       x2="-65.308502"
       y1="144.75717"
       x1="224.23996" />
    <linearGradient
       gradientTransform="translate(100.2702,99.61116)"
       gradientUnits="userSpaceOnUse"
       xlink:href="#linearGradient4689"
       id="linearGradient2990"
       y2="76.313133"
       x2="26.670298"
       y1="77.475983"
       x1="172.94208" />
    <linearGradient
       y2="144.75717"
       x2="-65.308502"
       y1="144.75717"
       x1="224.23996"
       gradientTransform="matrix(0.562541,0,0,0.567972,-11.5974,-7.60954)"
       gradientUnits="userSpaceOnUse"
       id="linearGradient2255"
       xlink:href="#linearGradient4671"
       inkscape:collect="always" />
    <linearGradient
       y2="76.313133"
       x2="26.670298"
       y1="76.176224"
       x1="172.94208"
       gradientTransform="matrix(0.562541,0,0,0.567972,-11.5974,-7.60954)"
       gradientUnits="userSpaceOnUse"
       id="linearGradient2258"
       xlink:href="#linearGradient4689"
       inkscape:collect="always" />
    <radialGradient
       gradientUnits="userSpaceOnUse"
       gradientTransform="matrix(1,0,0,0.177966,0,108.7434)"
       r="29.036913"
       fy="132.28575"
       fx="61.518883"
       cy="132.28575"
       cx="61.518883"
       id="radialGradient2801"
       xlink:href="#linearGradient2795"
       inkscape:collect="always" />
    <linearGradient
       y2="137.27299"
       x2="112.03144"
       y1="192.35176"
       x1="150.96111"
       gradientTransform="matrix(-2.7281725,0,0,-2.7545114,673.13311,812.14552)"
       gradientUnits="userSpaceOnUse"
       id="linearGradient1475"
       xlink:href="#linearGradient4671"
       inkscape:collect="always" />
    <linearGradient
       y2="114.39767"
       x2="135.66525"
       y1="20.603781"
       x1="26.648937"
       gradientTransform="matrix(-2.7281725,0,0,-2.7545114,673.13311,812.14552)"
       gradientUnits="userSpaceOnUse"
       id="linearGradient1478"
       xlink:href="#linearGradient4689"
       inkscape:collect="always" />
  </defs>
  <path
     style="fill:url(#gradientFill-1);fill-rule:evenodd;stroke-width:1.25012708"
     d="M 450.73047 0 C 201.80019 3.7895613e-14 3.7895613e-14 135.15024 0 301.86719 C -1.1817898e-14 353.85814 19.641082 402.77054 54.205078 445.47656 C 55.926124 435.31687 58.441613 425.27165 61.804688 415.17969 C 68.503475 395.01327 75.492251 377.41091 86.966797 364.02344 C 98.441342 350.63597 115.08972 342.40625 136.31055 342.40625 L 178.41992 342.40625 C 177.56714 336.4688 177.12891 330.45943 177.12891 324.38867 C 177.12891 210.41459 330.51148 118.01953 519.7207 118.01953 C 708.92867 118.01953 848.5625 181.23288 848.5625 324.38867 C 848.5625 379.80402 827.63855 423.22384 791.03711 455.64648 C 795.261 460.73827 797.5465 465.17695 798.22266 466.57031 L 809.12109 484.94727 C 867.04727 434.16365 901.45898 370.70801 901.45898 301.86719 C 901.45898 135.15024 699.66202 3.7895613e-14 450.73047 0 z M 798.22266 466.57031 L 798.06055 466.29688 L 798.56836 467.27148 C 798.56836 467.27148 798.35279 466.83848 798.22266 466.57031 z M 136.31055 362.40625 C 119.73984 362.40625 110.4527 367.35495 102.15234 377.03906 C 93.851994 386.72317 87.22914 402.08504 80.785156 421.48438 L 80.783203 421.48828 L 80.78125 421.49414 C 75.902081 436.13338 72.926793 450.45222 71.791016 465.35352 C 100.00929 494.62359 135.57908 520.41669 176.75586 541.55859 C 184.96463 499.08971 222.93996 466.22466 266.34375 466.22461 L 270.93164 466.22461 C 226.54539 437.987 195.24563 402.21224 182.93555 362.40625 L 136.31055 362.40625 z M 775.41797 468.15234 C 751.78293 485.25578 723.09323 498.68951 690.38477 508.66016 L 711.41406 548.15039 C 741.79216 533.70198 769.37675 516.79429 793.53125 497.86328 L 780.57812 476.02539 L 780.34961 475.52539 C 780.34961 475.52539 778.74241 472.05845 775.41797 468.15234 z M 266.34375 502.59375 C 236.01113 502.59375 211.87458 527.12295 211.35352 557.66602 C 280.71852 586.84269 362.77427 603.73242 450.73047 603.73242 C 484.15586 603.73242 516.71899 601.27309 548.07031 596.65039 C 563.94352 587.32514 576.01751 571.25701 581.55078 548.15625 L 581.55273 548.15039 L 581.55469 548.14258 C 583.27623 541.00061 584.71781 534.34179 585.93945 527.95312 C 564.69303 529.8256 542.572 530.75586 519.7207 530.75586 C 456.68012 530.75586 397.62947 520.48772 346.89062 502.59375 L 266.34375 502.59375 z M 670.64258 514.14062 C 650.52945 519.19858 629.0983 523.07388 606.55273 525.80273 C 605.12727 534.38 603.298 543.28996 601.00195 552.81641 L 600.99805 552.83008 C 597.51079 567.38087 591.48489 579.95519 583.59766 590.39453 C 622.64159 582.33928 659.42284 570.83007 693.14453 556.39453 L 670.64258 514.14062 z "
     id="path14" />
  <path
     id="path1948"
     style="fill:url(#linearGradient1478);fill-opacity:1;stroke-width:4.84973097"
     d="m 334.0889,755.38771 c 22.22972,-0.1033 43.45844,-1.99915 62.13718,-5.30439 55.0265,-9.72131 65.01695,-30.06883 65.01695,-67.59313 V 632.932 H 331.20962 v -16.51939 h 130.03341 48.80042 c 37.79152,0 70.88269,-22.71477 81.23299,-65.92603 11.93907,-49.53013 12.46866,-80.43775 0,-132.15519 -9.2431,-38.49643 -31.31714,-65.92598 -69.10867,-65.92603 h -44.7087 v 59.40921 c 0,42.91968 -37.13487,80.77833 -81.23299,80.77833 H 266.34447 c -36.15475,0 -65.01695,29.76847 -65.01695,66.0776 v 123.81969 c 0,35.23979 29.72885,61.71175 65.01695,67.59313 22.33786,3.71841 45.51521,5.40768 67.74443,5.30439 z M 404.41,715.52898 c -13.43133,0 -24.39996,-11.14781 -24.39996,-24.85487 0,-13.65847 10.96863,-24.70331 24.39996,-24.70331 13.47983,0 24.40045,11.04485 24.40045,24.70331 0,13.70705 -10.92062,24.85487 -24.40045,24.85487 z m 73.04898,-505.19304 v 142.07031 h 44.70899 c 37.79153,5e-5 59.86627,27.42935 69.10937,65.92578 6.18998,25.67475 9.17301,46.21921 9.15039,66.46094 h 0.01 l -0.004,-27.39453 h 33.02539 c 6.755,0 9.668,1.969 16.5,7.5 8.19,6.631 21.5,29.5 21.5,29.5 l 65,122.06054 139,-0.0605 -86,-145 c 0,0 -2.622,-5.788 -8,-11.5 -5.49,-5.832 -13.101,-10.274 -17.5,-12.5 -12.678,-6.415 -34.5,-13 -34.5,-13 0,0 107.5,-7.967 107.5,-115 0,-107.033 -112.5,-109.0625 -112.5,-109.0625 z m 124.03711,88.03711 74.46289,0.0488 c 0,-10e-6 34.5,-1.86849 34.5,33.85351 0,35.018 -34.5,35.125 -34.5,35.125 l -74.5,0.0234 z M 477.45898,616.41211 v 0.0117 l 2.52344,-0.002 v -0.01 z" />
  <path
     inkscape:connector-curvature="0"
     style="fill:url(#linearGradient1475);fill-opacity:1;stroke-width:4.84973097"
     d="M 185.11148,616.41261 V 558.6705 c 0,-44.76667 37.9535,-82.4454 81.23299,-82.44545 h 129.88161 c 35.57714,0 65.01695,-30.44893 65.01695,-66.07758 V 286.32783 c 0,-35.2398 -30.64351,-55.96745 -65.01695,-66.07759 -41.16112,-12.10303 -80.63259,-14.29036 -129.88161,0 -32.73666,9.47827 -65.01695,28.55333 -65.01695,66.07759 v 49.55814 h 129.8821 v 16.51939 h -129.8821 -65.01646 c -37.791528,0 -51.874176,26.36028 -65.016948,65.92603 -13.57585,40.73236 -12.99825,79.9031 0,132.15519 9.339613,37.6215 27.17741,65.92603 65.016948,65.92603 z m 73.04907,-313.56544 c -13.47983,0 -24.40045,-11.04482 -24.40045,-24.70326 0,-13.70704 10.92062,-24.85487 24.40045,-24.85487 13.43133,0 24.39996,11.14783 24.39996,24.85487 0,13.65844 -10.96863,24.70326 -24.39996,24.70326 z"
     id="path1950" />
</svg>
